<svg xmlns="http://www.w3.org/2000/svg" viewBox="0 0 237.3 237.3"><defs><style>.cls-1{fill:#7e65aa;}.cls-2{fill:#17ad84;}</style></defs><title>Logomark</title><g id="Layer_2" data-name="Layer 2"><g id="Layer_1-2" data-name="Layer 1"><path class="cls-1" d="M124.69,179.07V130.35a15.48,15.48,0,0,1,7.05-13l29.63-19.3a36,36,0,1,0-6.61-10.12l-25.87,16.85a2.72,2.72,0,0,1-4.2-2.28V71.63a36.07,36.07,0,1,0-12.08,0v30.88a2.72,2.72,0,0,1-4.2,2.28L82.54,87.94a36.05,36.05,0,1,0-33.17,21.75,36.42,36.42,0,0,0,7.53-.79,35.75,35.75,0,0,0,19-10.85l29.65,19.31a15.5,15.5,0,0,1,7,13v48.72c1.29,2.62,2.48,5.31,3.57,8a2.66,2.66,0,0,0,4.94,0Q122.77,183,124.69,179.07ZM164.4,68.64a24,24,0,1,1,3.36,18A23.81,23.81,0,0,1,164.4,68.64ZM94.66,36.07a24,24,0,1,1,24,24A24,24,0,0,1,94.66,36.07ZM36.35,93.71a24,24,0,0,1,8.12-43.57,24.47,24.47,0,0,1,5-.53,24,24,0,1,1-13.14,44.1Z"/><path class="cls-2" d="M234,112.61h-2.78a118.65,118.65,0,0,0-106.57,66.46q-1.93,3.94-3.58,8.06a2.64,2.64,0,0,1-4.92,0q-1.65-4.11-3.58-8.06A118.64,118.64,0,0,0,6,112.61H3.26A3.26,3.26,0,0,0,0,115.87v2.78a118.66,118.66,0,0,0,112.61,118.5l6,.15,6-.15A118.66,118.66,0,0,0,237.3,118.65v-2.78A3.26,3.26,0,0,0,234,112.61ZM107.49,210.7l-73-65.21a1.14,1.14,0,0,0-1.61,1.61l65.21,73a1.69,1.69,0,0,1-1.6,2.79,106.74,106.74,0,0,1-84.22-98,106.76,106.76,0,0,1,98,84.23A1.69,1.69,0,0,1,107.49,210.7Zm33.32,12.18a1.69,1.69,0,0,1-1.6-2.78l65.21-73a1.14,1.14,0,0,0-1.61-1.61l-73,65.21a1.69,1.69,0,0,1-2.78-1.6,106.76,106.76,0,0,1,98-84.23A106.76,106.76,0,0,1,140.81,222.88Z"/><circle class="cls-2" cx="118.65" cy="36.07" r="10.51" transform="translate(9.25 94.46) rotate(-45)"/><circle class="cls-2" cx="49.44" cy="73.61" r="10.51" transform="translate(-27.82 117.12) rotate(-85.5)"/><circle class="cls-2" cx="187.86" cy="73.61" r="10.51" transform="translate(-5.19 14.96) rotate(-4.5)"/></g></g></svg>